<svg width="43" height="46" viewBox="0 0 43 46" fill="none" xmlns="http://www.w3.org/2000/svg">
<g filter="url(#filter0_dd_302_776)">
<path d="M10.9167 6C11.9167 5 11.1667 2 9.47869 2C7.79069 2 7.91669 4 8.91669 4C9.91669 4 9.91669 6 9.91669 7C9.91669 8 10.9167 6 10.9167 6ZM6.73369 7.72C7.73369 6.72 6.98369 3.72 5.29569 3.72C3.60769 3.72 3.73369 5.72 4.73369 5.72C5.73369 5.72 5.73369 7.72 5.73369 8.72C5.73369 9.72 6.73369 7.72 6.73369 7.72Z" fill="#AA8DD8"/>
<path d="M33.1087 34.856C33.2977 35.664 34.3357 37.136 35.1407 36.947C35.9467 36.757 36.2177 34.976 36.0287 34.17C35.8397 33.362 35.0307 32.863 34.2247 33.053C33.4197 33.243 32.9187 34.05 33.1087 34.856ZM27.6747 35.505C27.6777 36.335 28.3557 38.003 29.1837 38C30.0117 37.996 30.6777 36.323 30.6747 35.494C30.6717 34.665 29.9977 33.997 29.1697 33.999C28.3417 34.003 27.6717 34.676 27.6747 35.505ZM22.4037 33.059C22.0777 33.823 22.0387 35.622 22.7997 35.949C23.5627 36.273 24.8367 35.002 25.1627 34.239C25.4877 33.477 25.1347 32.596 24.3737 32.269C23.6117 31.944 22.7307 32.296 22.4037 33.059ZM17.3727 22.019C16.5607 22.191 15.0647 23.192 15.2337 24.002C15.4067 24.812 17.1787 25.126 17.9907 24.955C18.8017 24.784 19.3197 23.988 19.1507 23.178C18.9787 22.368 18.1857 21.848 17.3727 22.019ZM15.3357 17.019C14.5237 17.191 13.0277 18.192 13.1967 19.002C13.3697 19.812 15.1417 20.126 15.9537 19.955C16.7647 19.784 17.2827 18.988 17.1137 18.178C16.9417 17.368 16.1477 16.848 15.3357 17.019Z" fill="#744EAA"/>
<path d="M30.7457 36C33.5767 36 35.6717 35.123 36.0117 34.973C38.2827 33.963 39.3047 31.304 38.2957 29.034C37.2967 26.784 34.6797 25.759 32.4237 26.72C32.2907 26.77 30.6307 27.369 29.0807 26.648C27.2297 25.787 26.0857 23.339 25.4527 21.439C25.3087 21.009 25.0677 20.165 24.7667 19.123C22.9007 12.652 21.9347 10.838 20.7837 9.30299C17.0727 4.35199 11.1917 4.00699 8.30071 4.58699C5.86371 5.07399 4.28271 7.44499 4.77071 9.88199C5.25871 12.32 7.63071 13.902 10.0667 13.412C10.2287 13.386 12.2707 13.106 13.4907 14.581C14.1337 15.868 15.5707 19.709 16.1207 21.615C16.4667 22.814 16.7497 23.786 16.9147 24.282C18.6877 29.599 21.5807 33.175 25.5177 34.911C27.3697 35.729 29.1717 36 30.7457 36Z" fill="#9266CC"/>
<path d="M10.1837 8C10.736 8 11.1837 7.55228 11.1837 7C11.1837 6.44772 10.736 6 10.1837 6C9.6314 6 9.18369 6.44772 9.18369 7C9.18369 7.55228 9.6314 8 10.1837 8Z" fill="#202024"/>
<path d="M34.4247 34.964C34.3357 34.964 34.2447 34.952 34.1557 34.928C33.6237 34.78 33.3117 34.229 33.4597 33.697C34.2167 30.975 32.6897 29.155 32.6747 29.137C32.3157 28.718 32.3627 28.086 32.7817 27.727C33.1997 27.368 33.8327 27.415 34.1917 27.834C34.2837 27.941 36.4257 30.494 35.3867 34.231C35.2647 34.674 34.8617 34.964 34.4247 34.964ZM27.2257 34.401C26.9807 34.401 26.7357 34.312 26.5417 34.131C26.1387 33.753 26.1177 33.12 26.4947 32.717C27.9797 31.13 27.9477 28.524 27.9467 28.497C27.9307 27.945 28.3657 27.485 28.9187 27.469C29.4607 27.464 29.9317 27.888 29.9467 28.441C29.9507 28.58 30.0197 31.878 27.9557 34.085C27.7587 34.295 27.4917 34.401 27.2257 34.401ZM18.6837 25.705C18.2037 25.705 17.7797 25.358 17.6987 24.868C17.6087 24.324 17.9767 23.808 18.5217 23.719C21.5957 23.209 23.2957 21.342 23.3127 21.323C23.6777 20.913 24.3107 20.874 24.7217 21.239C25.1337 21.604 25.1747 22.232 24.8127 22.645C24.7257 22.744 22.6567 25.06 18.8487 25.691C18.7927 25.701 18.7377 25.705 18.6837 25.705ZM21.6047 30.562C21.1797 30.562 20.7857 30.29 20.6507 29.864C20.4847 29.338 20.7767 28.775 21.3027 28.609C23.9957 27.756 25.1827 25.779 25.1947 25.759C25.4747 25.282 26.0867 25.122 26.5627 25.402C27.0397 25.681 27.1987 26.295 26.9197 26.77C26.8567 26.878 25.3247 29.433 21.9067 30.514C21.8057 30.547 21.7037 30.562 21.6047 30.562ZM16.9857 19.892C16.4897 19.892 16.0587 19.523 15.9947 19.017C15.9257 18.469 16.3137 17.969 16.8617 17.899C19.5507 17.559 21.5187 15.928 21.5377 15.911C21.9597 15.557 22.5907 15.608 22.9457 16.03C23.3017 16.451 23.2507 17.08 22.8307 17.437C22.7337 17.52 20.4107 19.466 17.1127 19.883C17.0697 19.889 17.0277 19.892 16.9857 19.892ZM15.1647 15.125C14.7397 15.125 14.3457 14.852 14.2107 14.424C14.0457 13.897 14.3377 13.336 14.8647 13.17C17.9947 12.187 19.1177 10.478 19.1637 10.406C19.4587 9.94397 20.0747 9.80097 20.5387 10.094C21.0037 10.386 21.1497 10.993 20.8627 11.46C20.8027 11.557 19.3567 13.856 15.4637 15.079C15.3647 15.11 15.2637 15.125 15.1647 15.125Z" fill="#744EAA"/>
</g>
<defs>
<filter id="filter0_dd_302_776" x="-3" y="0" width="48" height="48" filterUnits="userSpaceOnUse" color-interpolation-filters="sRGB">
<feFlood flood-opacity="0" result="BackgroundImageFix"/>
<feColorMatrix in="SourceAlpha" type="matrix" values="0 0 0 0 0 0 0 0 0 0 0 0 0 0 0 0 0 0 127 0" result="hardAlpha"/>
<feOffset dy="4"/>
<feGaussianBlur stdDeviation="2"/>
<feComposite in2="hardAlpha" operator="out"/>
<feColorMatrix type="matrix" values="0 0 0 0 0 0 0 0 0 0 0 0 0 0 0 0 0 0 0.25 0"/>
<feBlend mode="normal" in2="BackgroundImageFix" result="effect1_dropShadow_302_776"/>
<feColorMatrix in="SourceAlpha" type="matrix" values="0 0 0 0 0 0 0 0 0 0 0 0 0 0 0 0 0 0 127 0" result="hardAlpha"/>
<feOffset dy="4"/>
<feGaussianBlur stdDeviation="2"/>
<feComposite in2="hardAlpha" operator="out"/>
<feColorMatrix type="matrix" values="0 0 0 0 0 0 0 0 0 0 0 0 0 0 0 0 0 0 0.25 0"/>
<feBlend mode="normal" in2="effect1_dropShadow_302_776" result="effect2_dropShadow_302_776"/>
<feBlend mode="normal" in="SourceGraphic" in2="effect2_dropShadow_302_776" result="shape"/>
</filter>
</defs>
</svg>
